<svg width="250" height="250" viewBox="0 0 250 250" fill="none" xmlns="http://www.w3.org/2000/svg">
<g clip-path="url(#clip0_1_6)">
<rect width="250" height="250" fill="white"/>
<path d="M222.579 68.7146L182.065 28.1142C166.502 12.6122 145.504 4 123.518 4C101.285 4 80.5336 12.6122 64.9704 28.1142L24.2095 68.7146C8.64625 84.2165 0 104.886 0 127.031C0 149.177 8.64625 169.846 24.2095 185.348L64.7233 225.703C80.5336 241.451 101.285 250.063 123.518 250.063C145.01 250.063 165.514 241.943 181.077 226.933L222.579 185.594C238.389 169.846 247.036 149.177 247.036 127.031C247.036 104.886 238.389 84.2165 222.579 68.7146ZM195.652 156.313L154.397 197.159C146.739 204.541 136.117 209.217 124.753 209.217C112.895 209.217 102.273 204.541 94.3676 196.667L114.377 176.736C117.095 179.443 120.553 180.919 124.753 180.919C128.706 180.919 132.411 179.197 135.128 176.736L175.889 136.382C178.36 133.675 180.089 130.23 180.089 126.047C180.089 122.11 178.36 118.419 175.889 115.713C173.172 113.006 169.713 111.53 165.514 111.53C161.561 111.53 157.856 113.252 155.138 115.713L114.377 156.313C106.719 163.941 96.0968 168.862 84.2391 168.862C72.3814 168.862 61.7589 163.941 53.8538 156.313C46.1957 148.685 41.2549 137.858 41.2549 126.047C41.2549 114.236 45.9486 103.656 53.8538 95.7815L94.3676 55.4272C102.026 47.7992 112.895 42.878 124.753 42.878C136.611 42.878 147.233 47.7992 155.138 55.4272L135.128 75.3583C132.411 72.6516 128.953 71.1752 124.753 71.1752C120.8 71.1752 117.095 72.8976 114.377 75.3583L73.8636 115.959C71.1462 118.665 69.664 122.11 69.664 126.293C69.664 130.23 71.3933 133.921 73.8636 136.628C76.581 139.335 80.0395 140.811 84.2391 140.811C88.1917 140.811 91.8972 139.089 94.6146 136.628L135.128 96.2736C143.034 88.6457 153.656 83.7244 165.514 83.7244C177.372 83.7244 187.994 88.3996 195.899 96.2736C203.557 104.148 208.498 114.728 208.498 126.539C208.251 137.858 203.557 148.439 195.652 156.313Z" fill="white"/>
</g>
<defs>
<clipPath id="clip0_1_6">
<rect width="250" height="250" fill="white"/>
</clipPath>
</defs>
</svg>
